<svg width="39" height="35" viewBox="0 0 39 35" fill="none" xmlns="http://www.w3.org/2000/svg">
<path id="Vector" d="M26.9099 23.23C26.0499 25.06 24.4099 26.52 21.4799 26.52C18.1299 26.52 15.3798 24.45 15.0198 20H38.6199C38.7398 18.96 38.7999 17.93 38.7999 16.95C38.7999 6.58 31.7898 0 21.8498 0C12.7998 0 6.18985 5.36 4.88985 14.21H0.0898438C0.0898438 14.21 0.759848 19.77 4.78985 19.99C5.81985 29.31 12.6398 35 21.8498 35C30.3198 35 36.3598 29.88 38.0098 23.23H26.9099ZM21.7198 8.35C25.1998 8.35 28.1199 10.48 28.1199 14.2H15.0698C15.6798 10.42 18.2998 8.35 21.7198 8.35Z" fill="white"/>
</svg>
