<svg width="185" height="195" viewBox="0 0 185 195" fill="none" xmlns="http://www.w3.org/2000/svg">
<path d="M154.781 7.36839L10.5316 24.3903C5.01936 25.0408 1.07809 30.0367 1.72855 35.5489L19.3072 184.515C19.9576 190.028 24.9535 193.969 30.4657 193.318L174.715 176.296C180.227 175.646 184.168 170.65 183.518 165.138L165.939 16.1714C165.289 10.6592 160.293 6.71792 154.781 7.36839Z" fill="url(#paint0_linear_2_641)"/>
<path d="M10.9699 24.3301L154.37 7.40991C160.11 6.72991 165.33 10.8501 166.01 16.5901L169.77 48.48L5.56 67.8601L1.79999 35.97C1.11999 30.23 5.23992 25.0101 10.9799 24.3301H10.9699Z" fill="#FD540B"/>
<path d="M47.7457 10.7187L39.0461 11.7453C37.3897 11.9407 36.2053 13.442 36.4008 15.0984L38.345 31.5742C38.5405 33.2306 40.0417 34.4149 41.6981 34.2195L50.3978 33.1929C52.0542 32.9974 53.2385 31.4961 53.0431 29.8397L51.0989 13.364C50.9034 11.7076 49.4021 10.5232 47.7457 10.7187Z" fill="#414042"/>
<path d="M128.512 1.18913L119.813 2.21572C118.156 2.41119 116.972 3.9122 117.167 5.56861L119.112 22.0444C119.307 23.7008 120.808 24.8851 122.465 24.6897L131.164 23.6631C132.821 23.4676 134.005 21.9664 133.81 20.31L131.865 3.83418C131.67 2.17777 130.169 0.993668 128.512 1.18913Z" fill="#414042"/>
<path opacity="0.2" d="M167.97 112.95L156.43 116.58L140.32 121.66L128.78 125.29L129.6 127.88C130.62 131.12 130.76 134.42 130.15 137.54C128.81 144.42 123.85 150.38 116.71 152.62C106.34 155.89 95.2301 150.11 91.9701 139.73L87.4801 125.48L125.11 113.63L136.65 110L152.77 104.92L164.31 101.28L160.68 89.74L158.45 82.6599C154.49 70.0799 146.81 59.7001 137.01 52.3401L116.14 54.8C117.81 55.38 119.46 56.04 121.08 56.8C121.71 57.09 122.33 57.4 122.95 57.72C134.49 63.73 143 73.88 146.91 86.29L149.14 93.3701L133.03 98.45L121.49 102.08L83.8601 113.93L72.3201 117.56L56.2001 122.64L45.6301 125.97C45.3001 126.07 44.9801 126.17 44.6501 126.25C34.2301 129.01 23.3801 123.63 19.2001 113.82L39.9401 107.29L51.7701 103.56C51.5201 99.1901 51.8702 94.82 52.8102 90.55C53.7202 86.3801 55.2001 82.3099 57.2301 78.4099C57.5501 77.7899 57.8901 77.1801 58.2401 76.5901C62.2401 69.6401 67.7901 63.9 74.4501 59.72L53.5701 62.1799C52.4501 63.5399 51.3901 64.9399 50.4001 66.3799C47.2001 71.0199 44.6501 76.0899 42.8401 81.4399C41.4001 85.6799 40.4201 90.1001 39.9501 94.6001L17.8102 101.57L9.8501 104.08L12.4302 125.95C15.4502 129.85 19.2602 133.01 23.5402 135.25C30.9202 139.1 39.7202 140.23 48.3002 137.8L51.8102 148.95C57.3902 166.68 70.3501 180.03 86.2301 186.72L145.83 179.69C153.41 174.12 159.51 166.94 163.75 158.78C169.09 148.54 171.52 136.8 170.36 124.87C169.98 120.89 169.19 116.9 167.98 112.94L167.95 112.96L167.97 112.95ZM153.01 153.2C147 164.74 136.85 173.25 124.44 177.16C112.03 181.07 98.8402 179.91 87.2902 173.9C75.7502 167.89 67.2401 157.74 63.3301 145.33L59.8201 134.19L75.9401 129.11L80.4302 143.36C85.7102 160.13 103.58 169.43 120.34 164.15C128.72 161.51 135.24 155.72 139 148.5C141.37 143.96 142.64 138.85 142.61 133.6L158.5 128.6C158.87 137.05 157.02 145.48 153.01 153.18V153.2Z" fill="white"/>
<defs>
<linearGradient id="paint0_linear_2_641" x1="73.0888" y1="-60.8883" x2="110.644" y2="249.006" gradientUnits="userSpaceOnUse">
<stop stop-color="#DDE5EC"/>
<stop offset="0.45" stop-color="#DAE3EA"/>
<stop offset="0.66" stop-color="#D3DCE6"/>
<stop offset="0.83" stop-color="#C6D1DE"/>
<stop offset="0.97" stop-color="#B3C2D3"/>
<stop offset="1" stop-color="#AFBED0"/>
</linearGradient>
</defs>
</svg>
