<svg width="153" height="41" viewBox="0 0 153 41" fill="none" xmlns="http://www.w3.org/2000/svg">
<path d="M105.42 11.1599V5.48988H94.9902V39.5199H105.42V23.7299C105.42 17.8799 108.29 16.1699 113.23 16.1699H116.1V5.12988C111.53 5.12988 107.81 7.56988 105.43 11.1699L105.42 11.1599Z" fill="white"/>
<path d="M142.57 5.49001V10.31C140.74 7.32001 137.14 5.01001 132.08 5.01001C123.73 5.01001 117.08 11.72 117.08 22.45C117.08 33.18 123.73 40.01 132.02 40.01C137.08 40.01 140.68 37.69 142.57 34.71V39.53H153V5.50001H142.57V5.49001ZM135.13 30.92C131.23 30.92 127.69 27.87 127.69 22.45C127.69 17.03 131.23 14.09 135.13 14.09C139.03 14.09 142.57 17.08 142.57 22.51C142.57 27.94 139.09 30.93 135.13 30.93V30.92Z" fill="white"/>
<path d="M84.7 27.8V14.14H91.53V5.47999H84.7V0.98999H74.27V5.47999H59.45L53.96 14.87L47.44 5.47999H35.73L47.26 22.13L36.04 39.51H47.32L52.81 30.06L59.33 39.51H71.04L59.33 22.62L70.12 6.39999V14.14H74.27V27.68C74.27 36.52 79.21 39.51 86.28 39.51H91.59V30.67H87.87C85.55 30.67 84.7 29.82 84.7 27.8Z" fill="white"/>
<path d="M26.9099 28.23C26.0499 30.06 24.4099 31.52 21.4799 31.52C18.1299 31.52 15.3798 29.45 15.0198 25H38.6199C38.7398 23.96 38.7999 22.93 38.7999 21.95C38.7999 11.58 31.7898 5 21.8498 5C12.7998 5 6.18985 10.36 4.88985 19.21H0.0898438C0.0898438 19.21 0.759848 24.77 4.78985 24.99C5.81985 34.31 12.6398 40 21.8498 40C30.3198 40 36.3598 34.88 38.0098 28.23H26.9099ZM21.7198 13.35C25.1998 13.35 28.1199 15.48 28.1199 19.2H15.0698C15.6798 15.42 18.2998 13.35 21.7198 13.35Z" fill="white"/>
</svg>
