<svg width="299" height="261" viewBox="0 0 299 261" fill="none" xmlns="http://www.w3.org/2000/svg">
<path d="M262.61 194.96C262.05 193.63 261.21 192.39 260.1 191.32L229.73 162.44C229.64 162.36 229.55 162.29 229.46 162.21C229.44 162.19 229.44 162.17 229.42 162.16L225.68 158.8C225.68 158.8 225.66 158.79 225.65 158.78C223.77 157.23 221.37 156.3 218.75 156.3H133.55C127.57 156.3 122.72 161.15 122.72 167.13V168.7C122.72 170.89 123.37 172.92 124.49 174.62L85.6999 161.97C80.0199 160.12 73.8999 163.22 72.0499 168.91L71.5699 170.4C71.2199 171.47 71.0499 172.56 71.0399 173.63C70.4599 177.86 72.4199 182.22 76.3499 184.48L153.11 228.8C153.74 229.16 154.38 229.45 155.03 229.67C156.39 230.29 157.9 230.64 159.5 230.64H229.48L270.48 260.53L298.96 221.46L262.59 194.95L262.61 194.96Z" fill="url(#paint0_linear_2_628)"/>
<path d="M170.51 44.0901H108.15V149.15H170.51V44.0901Z" fill="url(#paint1_linear_2_628)"/>
<path d="M139.32 53.6899C156.54 53.6899 170.5 49.5261 170.5 44.3899C170.5 39.2536 156.54 35.0901 139.32 35.0901C122.1 35.0901 108.14 39.2536 108.14 44.3899C108.14 49.5261 122.1 53.6899 139.32 53.6899Z" fill="url(#paint2_linear_2_628)"/>
<path d="M165.17 58.8501C165.01 56.0201 153.5 53.74 139.33 53.74C125.16 53.74 113.65 56.0201 113.49 58.8501V129.79C113.49 132.85 116.78 135.34 120.84 135.34H157.85C161.91 135.34 165.2 132.86 165.2 129.79V58.8501H165.18H165.17Z" fill="url(#paint3_linear_2_628)"/>
<path d="M135.33 8.42993H72.97V149.15H135.33V8.42993Z" fill="url(#paint4_linear_2_628)"/>
<path d="M104.15 16.96C121.37 16.96 135.33 13.2618 135.33 8.69995C135.33 4.13808 121.37 0.439941 104.15 0.439941C86.9298 0.439941 72.97 4.13808 72.97 8.69995C72.97 13.2618 86.9298 16.96 104.15 16.96Z" fill="url(#paint5_linear_2_628)"/>
<path d="M134.31 179.47C135.03 179.32 135.76 179.24 136.52 179.24H169.82C175.8 179.24 180.65 184.09 180.65 190.07V191.64C180.65 197.62 175.8 202.47 169.82 202.47H159.82L134.31 179.48V179.47Z" fill="url(#paint6_linear_2_628)"/>
<path d="M257.03 142.22H2.91992C1.83744 142.22 0.959961 143.097 0.959961 144.18V154.34C0.959961 155.423 1.83744 156.3 2.91992 156.3H257.03C258.112 156.3 258.99 155.423 258.99 154.34V144.18C258.99 143.097 258.112 142.22 257.03 142.22Z" fill="#AFBED0"/>
<path d="M129.99 35.6201C129.83 31.8701 118.32 28.8501 104.15 28.8501C89.9801 28.8501 78.4701 31.8701 78.3101 35.6201V129.55C78.3101 133.61 81.6 136.9 85.66 136.9H122.67C126.73 136.9 130.02 133.61 130.02 129.55V35.6201H130H129.99Z" fill="url(#paint7_linear_2_628)"/>
<defs>
<linearGradient id="paint0_linear_2_628" x1="70.9499" y1="208.42" x2="298.97" y2="208.42" gradientUnits="userSpaceOnUse">
<stop stop-color="#FEBF9A"/>
<stop offset="0.51" stop-color="#FDBD98"/>
<stop offset="0.69" stop-color="#FDB991"/>
<stop offset="0.83" stop-color="#FDB185"/>
<stop offset="0.93" stop-color="#FCA774"/>
<stop offset="1" stop-color="#FC9D65"/>
</linearGradient>
<linearGradient id="paint1_linear_2_628" x1="170.51" y1="96.62" x2="108.15" y2="96.62" gradientUnits="userSpaceOnUse">
<stop stop-color="#74C6F1"/>
<stop offset="1" stop-color="#F1F1E7"/>
</linearGradient>
<linearGradient id="paint2_linear_2_628" x1="170.51" y1="44.39" x2="108.14" y2="44.39" gradientUnits="userSpaceOnUse">
<stop stop-color="#74C6F1"/>
<stop offset="1" stop-color="#F1F1E7"/>
</linearGradient>
<linearGradient id="paint3_linear_2_628" x1="113.48" y1="94.54" x2="165.18" y2="94.54" gradientUnits="userSpaceOnUse">
<stop stop-color="white"/>
<stop offset="0.49" stop-color="#FD540B"/>
</linearGradient>
<linearGradient id="paint4_linear_2_628" x1="135.33" y1="78.7899" x2="72.97" y2="78.7899" gradientUnits="userSpaceOnUse">
<stop stop-color="#74C6F1"/>
<stop offset="1" stop-color="#F1F1E7"/>
</linearGradient>
<linearGradient id="paint5_linear_2_628" x1="135.33" y1="8.69995" x2="72.96" y2="8.69995" gradientUnits="userSpaceOnUse">
<stop stop-color="#74C6F1"/>
<stop offset="1" stop-color="#F1F1E7"/>
</linearGradient>
<linearGradient id="paint6_linear_2_628" x1="142.2" y1="213.46" x2="162.63" y2="178.09" gradientUnits="userSpaceOnUse">
<stop stop-color="#FDBB92" stop-opacity="0.6"/>
<stop offset="0.45" stop-color="#FCBA91" stop-opacity="0.61"/>
<stop offset="0.61" stop-color="#FCB88E" stop-opacity="0.63"/>
<stop offset="0.73" stop-color="#FCB488" stop-opacity="0.68"/>
<stop offset="0.82" stop-color="#FCAF81" stop-opacity="0.75"/>
<stop offset="0.9" stop-color="#FCA977" stop-opacity="0.84"/>
<stop offset="0.97" stop-color="#FCA16B" stop-opacity="0.94"/>
<stop offset="1" stop-color="#FC9D65"/>
</linearGradient>
<linearGradient id="paint7_linear_2_628" x1="78.3001" y1="82.87" x2="130" y2="82.87" gradientUnits="userSpaceOnUse">
<stop stop-color="white"/>
<stop offset="0.49" stop-color="#FD540B"/>
</linearGradient>
</defs>
</svg>
