<svg width="520" height="411" viewBox="0 0 520 411" fill="none" xmlns="http://www.w3.org/2000/svg">
<path d="M519.48 411V69.51C519.48 31.12 488.36 0 449.97 0H416.07C416.07 20.05 399.82 36.31 379.76 36.31H141.7C121.65 36.31 105.39 20.05 105.39 0H71.9502C33.5602 0 2.4502 31.12 2.4502 69.51V411H519.48Z" fill="white"/>
<path d="M109.72 117.03H57.6503C46.0799 117.03 36.7002 126.41 36.7002 137.98V190.05C36.7002 201.62 46.0799 211 57.6503 211H109.72C121.291 211 130.67 201.62 130.67 190.05V137.98C130.67 126.41 121.291 117.03 109.72 117.03Z" fill="#F0EEE6"/>
<path d="M226.72 117.03H174.65C163.08 117.03 153.7 126.41 153.7 137.98V190.05C153.7 201.62 163.08 211 174.65 211H226.72C238.291 211 247.67 201.62 247.67 190.05V137.98C247.67 126.41 238.291 117.03 226.72 117.03Z" fill="#F0EEE6"/>
<path d="M342.72 117.03H290.65C279.08 117.03 269.7 126.41 269.7 137.98V190.05C269.7 201.62 279.08 211 290.65 211H342.72C354.291 211 363.67 201.62 363.67 190.05V137.98C363.67 126.41 354.291 117.03 342.72 117.03Z" fill="#F0EEE6"/>
<path d="M459.72 117.03H407.65C396.08 117.03 386.7 126.41 386.7 137.98V190.05C386.7 201.62 396.08 211 407.65 211H459.72C471.291 211 480.67 201.62 480.67 190.05V137.98C480.67 126.41 471.291 117.03 459.72 117.03Z" fill="#F0EEE6"/>
<path d="M109.72 229.03H57.6503C46.0799 229.03 36.7002 238.41 36.7002 249.98V302.05C36.7002 313.62 46.0799 323 57.6503 323H109.72C121.291 323 130.67 313.62 130.67 302.05V249.98C130.67 238.41 121.291 229.03 109.72 229.03Z" fill="#F0EEE6"/>
<path d="M226.72 229.03H174.65C163.08 229.03 153.7 238.41 153.7 249.98V302.05C153.7 313.62 163.08 323 174.65 323H226.72C238.291 323 247.67 313.62 247.67 302.05V249.98C247.67 238.41 238.291 229.03 226.72 229.03Z" fill="#F0EEE6"/>
<path d="M342.72 229.03H290.65C279.08 229.03 269.7 238.41 269.7 249.98V302.05C269.7 313.62 279.08 323 290.65 323H342.72C354.291 323 363.67 313.62 363.67 302.05V249.98C363.67 238.41 354.291 229.03 342.72 229.03Z" fill="#F0EEE6"/>
<path d="M459.72 229.03H407.65C396.08 229.03 386.7 238.41 386.7 249.98V302.05C386.7 313.62 396.08 323 407.65 323H459.72C471.291 323 480.67 313.62 480.67 302.05V249.98C480.67 238.41 471.291 229.03 459.72 229.03Z" fill="#F0EEE6"/>
<path d="M459.98 229.03H407.72C396.111 229.03 386.7 238.441 386.7 250.05V302.31C386.7 313.919 396.111 323.33 407.72 323.33H459.98C471.589 323.33 481 313.919 481 302.31V250.05C481 238.441 471.589 229.03 459.98 229.03Z" fill="#FF540A"/>
<path d="M400.11 265.11C400.33 268.58 401.82 271.71 404.14 274.02C406.55 276.43 409.85 277.96 413.51 278.07V282.86C413.51 296.63 424.67 307.8 438.45 307.8C445.34 307.8 451.57 305.01 456.08 300.5C459.43 297.15 461.83 292.86 462.84 288.05C463.18 286.45 463.36 284.79 463.38 283.09H446.53V284.2C446.53 285.59 446.18 286.9 445.56 288.05C444.19 290.58 441.51 292.29 438.45 292.29C433.99 292.29 430.36 288.66 430.36 284.2V278.07H446.54H451.5H458.43H463.39V273.11V270.07C463.39 264.57 461.61 259.48 458.59 255.35C457.22 253.48 455.6 251.81 453.78 250.39C449.55 247.09 444.24 245.13 438.46 245.13C432.68 245.13 427.37 247.09 423.14 250.39C421.31 251.81 419.69 253.48 418.33 255.35C417.25 256.83 416.32 258.44 415.58 260.14H406.06H400.72C400.32 261.43 400.11 262.8 400.11 264.23C400.11 264.52 400.11 264.81 400.14 265.1L400.11 265.11ZM438.44 297.25C442.04 297.25 445.31 295.79 447.67 293.43C449.15 291.95 450.28 290.1 450.92 288.05H457.75C456.86 291.4 455.09 294.47 452.58 296.99C448.81 300.76 443.79 302.84 438.45 302.84C433.11 302.84 428.1 300.76 424.32 296.99C420.55 293.22 418.47 288.2 418.47 282.86V278.07H425.4V284.2C425.4 291.41 431.24 297.25 438.45 297.25H438.44ZM414 265.11H419.08C419.52 263.37 420.2 261.71 421.09 260.15C421.96 258.63 423.04 257.22 424.31 255.95C424.51 255.75 424.72 255.55 424.93 255.36C427.76 252.76 431.22 251.05 434.95 250.4C436.09 250.2 437.25 250.1 438.43 250.1C439.61 250.1 440.77 250.2 441.91 250.4C445.65 251.05 449.1 252.76 451.94 255.36C452.15 255.55 452.36 255.75 452.56 255.95C456.33 259.72 458.41 264.74 458.41 270.08V273.12H451.48H430.34H425.38H418.45H413.91C413.77 273.12 413.63 273.12 413.49 273.12C409.08 272.91 405.49 269.48 405.07 265.12H413.99L414 265.11Z" fill="white"/>
<path d="M130.67 411V361.98C130.67 350.41 121.289 341.03 109.719 341.03H57.6395C46.0695 341.03 36.6895 350.41 36.6895 361.98V411H130.66H130.67Z" fill="#F0EEE6"/>
<path d="M247.67 411V361.98C247.67 350.41 238.289 341.03 226.719 341.03H174.64C163.07 341.03 153.689 350.41 153.689 361.98V411H247.66H247.67Z" fill="#F0EEE6"/>
<path d="M363.67 411V361.98C363.67 350.41 354.289 341.03 342.719 341.03H290.64C279.07 341.03 269.689 350.41 269.689 361.98V411H363.66H363.67Z" fill="#F0EEE6"/>
<path d="M480.67 411V361.98C480.67 350.41 471.289 341.03 459.719 341.03H407.64C396.07 341.03 386.689 350.41 386.689 361.98V411H480.66H480.67Z" fill="#F0EEE6"/>
<path d="M517.48 411V69.51C517.48 31.12 486.36 0 447.97 0H414.07C414.07 20.05 397.82 36.31 377.76 36.31H139.7C119.65 36.31 103.39 20.05 103.39 0H69.9502C31.5602 0 0.450195 31.12 0.450195 69.51V411H517.48Z" fill="white"/>
<path d="M107.72 229.03H55.6503C44.0799 229.03 34.7002 238.41 34.7002 249.98V302.05C34.7002 313.62 44.0799 323 55.6503 323H107.72C119.291 323 128.67 313.62 128.67 302.05V249.98C128.67 238.41 119.291 229.03 107.72 229.03Z" fill="#F0EEE6"/>
<path d="M224.72 229.03H172.65C161.08 229.03 151.7 238.41 151.7 249.98V302.05C151.7 313.62 161.08 323 172.65 323H224.72C236.291 323 245.67 313.62 245.67 302.05V249.98C245.67 238.41 236.291 229.03 224.72 229.03Z" fill="#F0EEE6"/>
<path d="M340.72 229.03H288.65C277.08 229.03 267.7 238.41 267.7 249.98V302.05C267.7 313.62 277.08 323 288.65 323H340.72C352.291 323 361.67 313.62 361.67 302.05V249.98C361.67 238.41 352.291 229.03 340.72 229.03Z" fill="#F0EEE6"/>
<path d="M457.72 229.03H405.65C394.08 229.03 384.7 238.41 384.7 249.98V302.05C384.7 313.62 394.08 323 405.65 323H457.72C469.291 323 478.67 313.62 478.67 302.05V249.98C478.67 238.41 469.291 229.03 457.72 229.03Z" fill="#F0EEE6"/>
<path d="M457.98 229.03H405.72C394.111 229.03 384.7 238.441 384.7 250.05V302.31C384.7 313.919 394.111 323.33 405.72 323.33H457.98C469.589 323.33 479 313.919 479 302.31V250.05C479 238.441 469.589 229.03 457.98 229.03Z" fill="#FF540A"/>
<path d="M398.11 265.11C398.33 268.58 399.82 271.71 402.14 274.02C404.55 276.43 407.85 277.96 411.51 278.07V282.86C411.51 296.63 422.67 307.8 436.45 307.8C443.34 307.8 449.57 305.01 454.08 300.5C457.43 297.15 459.83 292.86 460.84 288.05C461.18 286.45 461.36 284.79 461.38 283.09H444.53V284.2C444.53 285.59 444.18 286.9 443.56 288.05C442.19 290.58 439.51 292.29 436.45 292.29C431.99 292.29 428.36 288.66 428.36 284.2V278.07H444.54H449.5H456.43H461.39V273.11V270.07C461.39 264.57 459.61 259.48 456.59 255.35C455.22 253.48 453.6 251.81 451.78 250.39C447.55 247.09 442.24 245.13 436.46 245.13C430.68 245.13 425.37 247.09 421.14 250.39C419.31 251.81 417.69 253.48 416.33 255.35C415.25 256.83 414.32 258.44 413.58 260.14H404.06H398.72C398.32 261.43 398.11 262.8 398.11 264.23C398.11 264.52 398.11 264.81 398.14 265.1L398.11 265.11ZM436.44 297.25C440.04 297.25 443.31 295.79 445.67 293.43C447.15 291.95 448.28 290.1 448.92 288.05H455.75C454.86 291.4 453.09 294.47 450.58 296.99C446.81 300.76 441.79 302.84 436.45 302.84C431.11 302.84 426.1 300.76 422.32 296.99C418.55 293.22 416.47 288.2 416.47 282.86V278.07H423.4V284.2C423.4 291.41 429.24 297.25 436.45 297.25H436.44ZM412 265.11H417.08C417.52 263.37 418.2 261.71 419.09 260.15C419.96 258.63 421.04 257.22 422.31 255.95C422.51 255.75 422.72 255.55 422.93 255.36C425.76 252.76 429.22 251.05 432.95 250.4C434.09 250.2 435.25 250.1 436.43 250.1C437.61 250.1 438.77 250.2 439.91 250.4C443.65 251.05 447.1 252.76 449.94 255.36C450.15 255.55 450.36 255.75 450.56 255.95C454.33 259.72 456.41 264.74 456.41 270.08V273.12H449.48H428.34H423.38H416.45H411.91C411.77 273.12 411.63 273.12 411.49 273.12C407.08 272.91 403.49 269.48 403.07 265.12H411.99L412 265.11Z" fill="white"/>
<path d="M128.67 411V361.98C128.67 350.41 119.289 341.03 107.719 341.03H55.6395C44.0695 341.03 34.6895 350.41 34.6895 361.98V411H128.66H128.67Z" fill="#F0EEE6"/>
<path d="M245.67 411V361.98C245.67 350.41 236.289 341.03 224.719 341.03H172.64C161.07 341.03 151.689 350.41 151.689 361.98V411H245.66H245.67Z" fill="#F0EEE6"/>
<path d="M361.67 411V361.98C361.67 350.41 352.289 341.03 340.719 341.03H288.64C277.07 341.03 267.689 350.41 267.689 361.98V411H361.66H361.67Z" fill="#F0EEE6"/>
<path d="M478.67 411V361.98C478.67 350.41 469.289 341.03 457.719 341.03H405.64C394.07 341.03 384.689 350.41 384.689 361.98V411H478.66H478.67Z" fill="#F0EEE6"/>
<path d="M229.18 109H48.8199C43.3965 109 39 113.397 39 118.82V164.18C39 169.603 43.3965 174 48.8199 174H229.18C234.603 174 239 169.603 239 164.18V118.82C239 113.397 234.603 109 229.18 109Z" fill="white"/>
<path d="M37 161.71C37 148.16 37 134.61 37 121.06C37.07 120.23 37.15 119.39 37.21 118.56C37.51 114.38 39.26 111.05 42.99 108.93C45.4 107.56 48.08 107.41 50.77 107.41C109.39 107.41 168 107.41 226.62 107.41C227.94 107.41 229.26 107.49 230.56 107.68C234.02 108.17 236.72 109.89 238.54 112.91C240 115.33 240.26 118.01 240.27 120.74C240.29 133.74 240.3 146.74 240.3 159.74C240.3 161.17 240.27 162.6 240.18 164.02C239.92 168.22 238.13 171.53 234.4 173.64C231.99 175 229.31 175.16 226.62 175.16C168 175.16 109.39 175.16 50.77 175.16C50.04 175.16 49.2999 175.15 48.5699 175.11C42.7499 174.77 38.68 171.52 37.53 166.18C37.22 164.72 37.17 163.21 37 161.73V161.71ZM138.72 108.86C109.52 108.86 80.32 108.86 51.12 108.86C50.06 108.86 48.9901 108.87 47.9301 108.97C43.7501 109.37 40.68 111.41 39.37 115.44C38.75 117.34 38.61 119.47 38.6 121.5C38.54 134.54 38.56 147.57 38.58 160.61C38.58 162 38.65 163.39 38.8 164.77C39.14 167.85 40.58 170.29 43.21 172.01C45.55 173.54 48.1699 173.68 50.8199 173.68C109.4 173.68 167.99 173.68 226.57 173.68C227.52 173.68 228.48 173.66 229.43 173.57C233 173.26 235.77 171.62 237.52 168.46C238.68 166.37 238.82 164.05 238.82 161.74C238.85 148.7 238.85 135.67 238.83 122.63C238.83 121.06 238.79 119.48 238.62 117.92C238.16 113.82 236.13 110.79 232.07 109.57C230.32 109.04 228.39 108.89 226.54 108.89C197.27 108.85 167.99 108.86 138.72 108.86Z" fill="black"/>
<path d="M83.6399 133.68C77.6599 137.85 78.5099 145.85 84.6299 148.88C84.5299 149.23 84.4499 149.61 84.3099 149.97C83.2899 152.63 81.7498 154.98 79.8698 157.11C78.1998 159 76.0899 159.56 73.8099 158.52C70.9999 157.24 68.3398 157.22 65.5698 158.58C63.7498 159.47 61.8998 159.22 60.4798 157.78C54.9098 152.09 52.2099 145.37 54.0099 137.4C54.8999 133.45 57.6298 130.99 61.7298 130.19C63.5598 129.83 65.2398 130.34 66.8398 131.06C68.4598 131.78 69.9698 131.85 71.5898 131.09C73.3298 130.28 75.1599 129.85 77.1299 130.01C79.8799 130.25 81.9399 131.59 83.6299 133.68H83.6399Z" fill="black"/>
<path d="M76.5499 120.82C77.3599 124.54 73.5598 129.91 69.1498 129.39C68.4198 125.46 72.2799 120.99 76.5499 120.82Z" fill="black"/>
<path d="M105.54 125.6C106.21 125.94 106.72 126.43 107.09 127.06C107.46 127.69 107.64 128.44 107.64 129.29C107.64 130.14 107.46 130.87 107.09 131.5C106.72 132.13 106.21 132.6 105.54 132.93C104.87 133.26 104.09 133.43 103.21 133.43H100.49V125.09H103.21C104.1 125.09 104.88 125.26 105.54 125.6ZM105.45 131.52C105.97 130.99 106.23 130.25 106.23 129.29C106.23 128.33 105.97 127.57 105.45 127.02C104.93 126.48 104.18 126.2 103.21 126.2H101.85V132.31H103.21C104.19 132.31 104.93 132.05 105.45 131.52Z" fill="black"/>
<path d="M110.49 132.97C109.84 132.61 109.32 132.1 108.94 131.45C108.56 130.8 108.37 130.06 108.37 129.25C108.37 128.44 108.56 127.7 108.94 127.05C109.32 126.4 109.84 125.9 110.49 125.53C111.14 125.17 111.86 124.98 112.63 124.98C113.4 124.98 114.13 125.16 114.78 125.53C115.43 125.89 115.95 126.4 116.32 127.05C116.7 127.7 116.88 128.43 116.88 129.25C116.88 130.07 116.69 130.8 116.32 131.45C115.94 132.1 115.43 132.61 114.78 132.97C114.13 133.33 113.41 133.52 112.63 133.52C111.85 133.52 111.14 133.34 110.49 132.97ZM114.11 131.95C114.54 131.7 114.88 131.34 115.12 130.87C115.36 130.4 115.49 129.86 115.49 129.24C115.49 128.62 115.37 128.08 115.12 127.62C114.88 127.16 114.54 126.8 114.11 126.55C113.68 126.3 113.19 126.18 112.63 126.18C112.07 126.18 111.59 126.3 111.15 126.55C110.72 126.8 110.38 127.15 110.14 127.62C109.9 128.09 109.77 128.62 109.77 129.24C109.77 129.86 109.89 130.4 110.14 130.87C110.38 131.34 110.72 131.7 111.15 131.95C111.58 132.2 112.07 132.33 112.63 132.33C113.19 132.33 113.67 132.2 114.11 131.95Z" fill="black"/>
<path d="M128.94 125.09L126.47 133.43H124.92L123.17 127.12L121.31 133.43H119.77L117.41 125.09H118.86L120.59 131.88L122.46 125.09H124L125.74 131.85L127.48 125.09H128.94Z" fill="black"/>
<path d="M136.77 133.43H135.4L131.28 127.2V133.43H129.91V125.08H131.28L135.4 131.3V125.08H136.77V133.43Z" fill="black"/>
<path d="M139.78 132.33H142.6V133.43H138.41V125.09H139.78V132.33Z" fill="black"/>
<path d="M145.25 132.97C144.6 132.61 144.08 132.1 143.7 131.45C143.32 130.8 143.13 130.06 143.13 129.25C143.13 128.44 143.32 127.7 143.7 127.05C144.08 126.4 144.6 125.9 145.25 125.53C145.9 125.17 146.62 124.98 147.39 124.98C148.16 124.98 148.89 125.16 149.54 125.53C150.19 125.89 150.71 126.4 151.08 127.05C151.46 127.7 151.64 128.43 151.64 129.25C151.64 130.07 151.45 130.8 151.08 131.45C150.7 132.1 150.19 132.61 149.54 132.97C148.89 133.33 148.17 133.52 147.39 133.52C146.61 133.52 145.9 133.34 145.25 132.97ZM148.87 131.95C149.3 131.7 149.64 131.34 149.88 130.87C150.12 130.4 150.25 129.86 150.25 129.24C150.25 128.62 150.13 128.08 149.88 127.62C149.64 127.16 149.3 126.8 148.87 126.55C148.44 126.3 147.95 126.18 147.39 126.18C146.83 126.18 146.35 126.3 145.91 126.55C145.48 126.8 145.14 127.15 144.9 127.62C144.66 128.09 144.53 128.62 144.53 129.24C144.53 129.86 144.65 130.4 144.9 130.87C145.14 131.34 145.48 131.7 145.91 131.95C146.34 132.2 146.83 132.33 147.39 132.33C147.95 132.33 148.43 132.2 148.87 131.95Z" fill="black"/>
<path d="M157.871 131.73H154.381L153.781 133.43H152.351L155.341 125.08H156.921L159.911 133.43H158.471L157.871 131.73ZM157.491 130.61L156.131 126.73L154.761 130.61H157.481H157.491Z" fill="black"/>
<path d="M166.101 125.6C166.771 125.94 167.281 126.43 167.651 127.06C168.021 127.69 168.201 128.44 168.201 129.29C168.201 130.14 168.021 130.87 167.651 131.5C167.281 132.13 166.771 132.6 166.101 132.93C165.431 133.26 164.651 133.43 163.771 133.43H161.051V125.09H163.771C164.661 125.09 165.441 125.26 166.101 125.6ZM166.011 131.52C166.531 130.99 166.791 130.25 166.791 129.29C166.791 128.33 166.531 127.57 166.011 127.02C165.491 126.48 164.741 126.2 163.771 126.2H162.411V132.31H163.771C164.751 132.31 165.491 132.05 166.011 131.52Z" fill="black"/>
<path d="M174.02 132.97C173.37 132.61 172.85 132.1 172.47 131.45C172.09 130.8 171.9 130.06 171.9 129.25C171.9 128.44 172.09 127.7 172.47 127.05C172.85 126.4 173.37 125.9 174.02 125.53C174.67 125.17 175.39 124.98 176.16 124.98C176.93 124.98 177.66 125.16 178.31 125.53C178.96 125.89 179.48 126.4 179.85 127.05C180.23 127.7 180.41 128.43 180.41 129.25C180.41 130.07 180.22 130.8 179.85 131.45C179.47 132.1 178.96 132.61 178.31 132.97C177.66 133.33 176.94 133.52 176.16 133.52C175.38 133.52 174.67 133.34 174.02 132.97ZM177.64 131.95C178.07 131.7 178.41 131.34 178.65 130.87C178.89 130.4 179.02 129.86 179.02 129.24C179.02 128.62 178.9 128.08 178.65 127.62C178.41 127.16 178.07 126.8 177.64 126.55C177.21 126.3 176.72 126.18 176.16 126.18C175.6 126.18 175.12 126.3 174.68 126.55C174.25 126.8 173.91 127.15 173.67 127.62C173.43 128.09 173.3 128.62 173.3 129.24C173.3 129.86 173.42 130.4 173.67 130.87C173.91 131.34 174.25 131.7 174.68 131.95C175.11 132.2 175.6 132.33 176.16 132.33C176.72 132.33 177.2 132.2 177.64 131.95Z" fill="black"/>
<path d="M188.47 133.43H187.1L182.98 127.2V133.43H181.61V125.08H182.98L187.1 131.3V125.08H188.47V133.43Z" fill="black"/>
<path d="M198.461 125.09V126.21H196.241V133.43H194.871V126.21H192.641V125.09H198.461Z" fill="black"/>
<path d="M206.341 125.09V133.43H204.971V129.78H201.051V133.43H199.681V125.09H201.051V128.67H204.971V125.09H206.341Z" fill="black"/>
<path d="M209.36 126.2V128.65H212.24V129.77H209.36V132.33H212.6V133.45H207.99V125.1H212.6V126.22H209.36V126.2Z" fill="black"/>
<path d="M107.8 154.69H102.24L101.32 157.35H98.3799L103.4 143.37H106.66L111.68 157.35H108.72L107.8 154.69ZM107.04 152.45L105.02 146.61L103 152.45H107.04Z" fill="black"/>
<path d="M117.59 146.6C118.22 146.26 118.95 146.09 119.76 146.09C120.71 146.09 121.56 146.32 122.33 146.79C123.1 147.26 123.7 147.92 124.15 148.78C124.6 149.64 124.82 150.64 124.82 151.77C124.82 152.9 124.6 153.91 124.15 154.78C123.7 155.65 123.1 156.33 122.33 156.81C121.56 157.29 120.71 157.53 119.76 157.53C118.95 157.53 118.23 157.36 117.61 157.03C116.99 156.7 116.49 156.28 116.1 155.77V162.63H113.3V146.27H116.1V147.87C116.46 147.36 116.96 146.94 117.59 146.6ZM121.55 150.04C121.28 149.55 120.92 149.18 120.47 148.93C120.02 148.68 119.54 148.55 119.02 148.55C118.5 148.55 118.04 148.68 117.59 148.94C117.14 149.2 116.78 149.58 116.51 150.07C116.24 150.56 116.1 151.14 116.1 151.81C116.1 152.48 116.24 153.06 116.51 153.55C116.78 154.04 117.14 154.42 117.59 154.68C118.04 154.94 118.51 155.07 119.02 155.07C119.53 155.07 120.02 154.94 120.47 154.67C120.92 154.4 121.28 154.02 121.55 153.53C121.82 153.04 121.96 152.45 121.96 151.77C121.96 151.09 121.82 150.53 121.55 150.04Z" fill="black"/>
<path d="M130.89 146.6C131.52 146.26 132.25 146.09 133.06 146.09C134.01 146.09 134.86 146.32 135.63 146.79C136.4 147.26 137 147.92 137.45 148.78C137.9 149.64 138.12 150.64 138.12 151.77C138.12 152.9 137.9 153.91 137.45 154.78C137 155.65 136.4 156.33 135.63 156.81C134.86 157.29 134.01 157.53 133.06 157.53C132.25 157.53 131.53 157.36 130.91 157.03C130.29 156.7 129.79 156.28 129.4 155.77V162.63H126.6V146.27H129.4V147.87C129.76 147.36 130.26 146.94 130.89 146.6ZM134.85 150.04C134.58 149.55 134.22 149.18 133.77 148.93C133.32 148.68 132.84 148.55 132.32 148.55C131.8 148.55 131.34 148.68 130.89 148.94C130.44 149.2 130.08 149.58 129.81 150.07C129.54 150.56 129.4 151.14 129.4 151.81C129.4 152.48 129.54 153.06 129.81 153.55C130.08 154.04 130.44 154.42 130.89 154.68C131.34 154.94 131.81 155.07 132.32 155.07C132.83 155.07 133.32 154.94 133.77 154.67C134.22 154.4 134.58 154.02 134.85 153.53C135.12 153.04 135.26 152.45 135.26 151.77C135.26 151.09 135.12 150.53 134.85 150.04Z" fill="black"/>
<path d="M146.59 156.99C145.81 156.66 145.19 156.18 144.74 155.55C144.29 154.92 144.05 154.18 144.04 153.33H147.04C147.08 153.9 147.28 154.36 147.65 154.69C148.02 155.02 148.52 155.19 149.16 155.19C149.8 155.19 150.33 155.03 150.7 154.72C151.07 154.41 151.26 154 151.26 153.49C151.26 153.08 151.13 152.74 150.88 152.47C150.63 152.2 150.31 151.99 149.93 151.84C149.55 151.69 149.03 151.52 148.36 151.33C147.45 151.06 146.72 150.8 146.15 150.54C145.58 150.28 145.1 149.89 144.69 149.36C144.28 148.83 144.08 148.13 144.08 147.25C144.08 146.42 144.29 145.7 144.7 145.09C145.11 144.48 145.69 144.01 146.44 143.68C147.19 143.35 148.04 143.19 149 143.19C150.44 143.19 151.61 143.54 152.51 144.24C153.41 144.94 153.91 145.92 154 147.17H150.92C150.89 146.69 150.69 146.29 150.31 145.98C149.93 145.67 149.43 145.51 148.8 145.51C148.25 145.51 147.82 145.65 147.49 145.93C147.16 146.21 147 146.62 147 147.15C147 147.52 147.12 147.83 147.37 148.08C147.62 148.33 147.92 148.53 148.29 148.68C148.66 148.83 149.17 149.01 149.84 149.21C150.75 149.48 151.49 149.74 152.06 150.01C152.63 150.28 153.13 150.68 153.54 151.21C153.95 151.74 154.16 152.44 154.16 153.31C154.16 154.06 153.97 154.75 153.58 155.39C153.19 156.03 152.63 156.54 151.88 156.92C151.13 157.3 150.25 157.49 149.22 157.49C148.25 157.49 147.37 157.32 146.59 156.99Z" fill="black"/>
<path d="M159.579 148.57V153.93C159.579 154.3 159.669 154.57 159.849 154.74C160.029 154.91 160.33 154.99 160.76 154.99H162.06V157.35H160.3C157.94 157.35 156.76 156.2 156.76 153.91V148.57H155.439V146.27H156.76V143.53H159.579V146.27H162.06V148.57H159.579Z" fill="black"/>
<path d="M165.86 156.82C165.01 156.35 164.34 155.68 163.85 154.81C163.36 153.94 163.12 152.94 163.12 151.81C163.12 150.68 163.37 149.68 163.87 148.81C164.37 147.94 165.05 147.27 165.92 146.8C166.79 146.33 167.75 146.09 168.82 146.09C169.89 146.09 170.85 146.33 171.72 146.8C172.59 147.27 173.27 147.94 173.77 148.81C174.27 149.68 174.52 150.68 174.52 151.81C174.52 152.94 174.26 153.94 173.75 154.81C173.24 155.68 172.54 156.35 171.67 156.82C170.8 157.29 169.82 157.53 168.74 157.53C167.66 157.53 166.71 157.29 165.86 156.82ZM170.17 154.72C170.62 154.47 170.97 154.1 171.24 153.61C171.51 153.12 171.64 152.52 171.64 151.81C171.64 150.76 171.36 149.95 170.81 149.38C170.26 148.81 169.58 148.53 168.78 148.53C167.98 148.53 167.31 148.81 166.77 149.38C166.23 149.95 165.96 150.76 165.96 151.81C165.96 152.86 166.22 153.67 166.75 154.24C167.28 154.81 167.94 155.09 168.74 155.09C169.25 155.09 169.72 154.97 170.17 154.72Z" fill="black"/>
<path d="M180.53 146.61C181.11 146.28 181.77 146.11 182.52 146.11V149.05H181.78C180.9 149.05 180.24 149.26 179.79 149.67C179.34 150.08 179.12 150.8 179.12 151.83V157.35H176.32V146.27H179.12V147.99C179.48 147.4 179.95 146.94 180.53 146.61Z" fill="black"/>
<path d="M194.36 152.65H186.26C186.33 153.45 186.61 154.08 187.1 154.53C187.59 154.98 188.2 155.21 188.92 155.21C189.96 155.21 190.7 154.76 191.14 153.87H194.16C193.84 154.94 193.23 155.81 192.32 156.5C191.41 157.19 190.3 157.53 188.98 157.53C187.91 157.53 186.96 157.29 186.11 156.82C185.26 156.35 184.6 155.68 184.13 154.81C183.66 153.94 183.42 152.94 183.42 151.81C183.42 150.68 183.65 149.66 184.12 148.79C184.59 147.92 185.24 147.26 186.08 146.79C186.92 146.32 187.89 146.09 188.98 146.09C190.07 146.09 190.98 146.32 191.81 146.77C192.64 147.22 193.29 147.87 193.75 148.7C194.21 149.53 194.44 150.49 194.44 151.57C194.44 151.97 194.41 152.33 194.36 152.65ZM191.54 150.77C191.53 150.05 191.27 149.47 190.76 149.04C190.25 148.61 189.63 148.39 188.9 148.39C188.21 148.39 187.62 148.6 187.15 149.02C186.68 149.44 186.39 150.02 186.28 150.77H191.54Z" fill="black"/>
<path d="M462.18 109H281.82C276.397 109 272 113.397 272 118.82V164.18C272 169.603 276.397 174 281.82 174H462.18C467.603 174 472 169.603 472 164.18V118.82C472 113.397 467.603 109 462.18 109Z" fill="white"/>
<path d="M270 161.71C270 148.16 270 134.61 270 121.06C270.07 120.23 270.15 119.39 270.21 118.56C270.51 114.38 272.26 111.05 275.99 108.93C278.4 107.56 281.08 107.41 283.77 107.41C342.39 107.41 401 107.41 459.62 107.41C460.94 107.41 462.26 107.49 463.56 107.68C467.02 108.17 469.72 109.89 471.54 112.91C473 115.33 473.26 118.01 473.27 120.74C473.29 133.74 473.3 146.74 473.3 159.74C473.3 161.17 473.27 162.6 473.18 164.02C472.92 168.22 471.13 171.53 467.4 173.64C464.99 175 462.31 175.16 459.62 175.16C401 175.16 342.39 175.16 283.77 175.16C283.04 175.16 282.3 175.15 281.57 175.11C275.75 174.77 271.68 171.52 270.53 166.18C270.22 164.72 270.17 163.21 270 161.73V161.71ZM371.72 108.86C342.52 108.86 313.32 108.86 284.12 108.86C283.06 108.86 281.99 108.87 280.93 108.97C276.75 109.37 273.68 111.41 272.37 115.44C271.75 117.34 271.61 119.47 271.6 121.5C271.54 134.54 271.56 147.57 271.58 160.61C271.58 162 271.65 163.39 271.8 164.77C272.14 167.85 273.58 170.29 276.21 172.01C278.55 173.54 281.17 173.68 283.82 173.68C342.4 173.68 400.99 173.68 459.57 173.68C460.52 173.68 461.48 173.66 462.43 173.57C466 173.26 468.77 171.62 470.52 168.46C471.68 166.37 471.82 164.05 471.82 161.74C471.85 148.7 471.85 135.67 471.83 122.63C471.83 121.06 471.79 119.48 471.62 117.92C471.16 113.82 469.13 110.79 465.07 109.57C463.32 109.04 461.39 108.89 459.54 108.89C430.27 108.85 400.99 108.86 371.72 108.86Z" fill="black"/>
<path d="M348.75 127.49C348.53 127.07 348.23 126.76 347.85 126.55C347.47 126.34 347.02 126.23 346.52 126.23C345.97 126.23 345.48 126.35 345.04 126.6C344.61 126.85 344.27 127.2 344.03 127.66C343.79 128.12 343.66 128.64 343.66 129.24C343.66 129.84 343.78 130.37 344.03 130.83C344.28 131.29 344.61 131.64 345.04 131.89C345.47 132.14 345.96 132.26 346.52 132.26C347.26 132.26 347.87 132.05 348.33 131.64C348.79 131.23 349.08 130.66 349.18 129.95H346.05V128.86H350.65V129.93C350.56 130.58 350.33 131.17 349.96 131.72C349.59 132.27 349.1 132.7 348.51 133.02C347.91 133.34 347.25 133.51 346.52 133.51C345.74 133.51 345.02 133.33 344.37 132.96C343.72 132.6 343.21 132.09 342.83 131.44C342.45 130.79 342.26 130.06 342.26 129.24C342.26 128.42 342.45 127.69 342.83 127.04C343.21 126.39 343.73 125.89 344.38 125.52C345.03 125.16 345.75 124.97 346.52 124.97C347.41 124.97 348.2 125.19 348.89 125.62C349.58 126.06 350.08 126.67 350.4 127.47H348.76L348.75 127.49Z" fill="black"/>
<path d="M353.21 126.2V128.65H356.09V129.77H353.21V132.33H356.45V133.45H351.84V125.1H356.45V126.22H353.21V126.2Z" fill="black"/>
<path d="M363.36 125.09V126.21H361.14V133.43H359.77V126.21H357.54V125.09H363.36Z" fill="black"/>
<path d="M368.91 125.09V133.43H367.54V125.09H368.91Z" fill="black"/>
<path d="M375.95 125.09V126.21H373.73V133.43H372.36V126.21H370.13V125.09H375.95Z" fill="black"/>
<path d="M381.79 132.97C381.14 132.61 380.62 132.1 380.24 131.45C379.86 130.8 379.67 130.06 379.67 129.25C379.67 128.44 379.86 127.7 380.24 127.05C380.62 126.4 381.14 125.9 381.79 125.53C382.44 125.17 383.16 124.98 383.93 124.98C384.7 124.98 385.43 125.16 386.08 125.53C386.73 125.89 387.25 126.4 387.62 127.05C388 127.7 388.18 128.43 388.18 129.25C388.18 130.07 387.99 130.8 387.62 131.45C387.24 132.1 386.73 132.61 386.08 132.97C385.43 133.33 384.71 133.52 383.93 133.52C383.15 133.52 382.44 133.34 381.79 132.97ZM385.41 131.95C385.84 131.7 386.18 131.34 386.42 130.87C386.66 130.4 386.79 129.86 386.79 129.24C386.79 128.62 386.67 128.08 386.42 127.62C386.18 127.16 385.84 126.8 385.41 126.55C384.98 126.3 384.49 126.18 383.93 126.18C383.37 126.18 382.89 126.3 382.45 126.55C382.02 126.8 381.68 127.15 381.44 127.62C381.2 128.09 381.07 128.62 381.07 129.24C381.07 129.86 381.19 130.4 381.44 130.87C381.68 131.34 382.02 131.7 382.45 131.95C382.88 132.2 383.37 132.33 383.93 132.33C384.49 132.33 384.97 132.2 385.41 131.95Z" fill="black"/>
<path d="M396.24 133.43H394.87L390.75 127.2V133.43H389.38V125.08H390.75L394.87 131.3V125.08H396.24V133.43Z" fill="black"/>
<path d="M351.64 147.59C351.32 147 350.88 146.56 350.32 146.25C349.76 145.94 349.11 145.79 348.36 145.79C347.53 145.79 346.8 145.98 346.16 146.35C345.52 146.72 345.02 147.26 344.66 147.95C344.3 148.64 344.12 149.44 344.12 150.35C344.12 151.26 344.3 152.1 344.67 152.79C345.04 153.48 345.55 154.02 346.2 154.39C346.85 154.76 347.61 154.95 348.48 154.95C349.55 154.95 350.42 154.67 351.1 154.1C351.78 153.53 352.23 152.74 352.44 151.73H347.64V149.59H355.2V152.03C355.01 153 354.61 153.9 354 154.73C353.39 155.56 352.6 156.22 351.63 156.72C350.66 157.22 349.58 157.47 348.38 157.47C347.03 157.47 345.82 157.17 344.73 156.56C343.64 155.95 342.79 155.11 342.17 154.03C341.55 152.95 341.24 151.72 341.24 150.35C341.24 148.98 341.55 147.75 342.17 146.66C342.79 145.57 343.64 144.73 344.73 144.12C345.82 143.51 347.03 143.21 348.36 143.21C349.93 143.21 351.3 143.59 352.46 144.36C353.62 145.13 354.42 146.2 354.86 147.59H351.64Z" fill="black"/>
<path d="M359.06 156.82C358.21 156.35 357.54 155.68 357.05 154.81C356.56 153.94 356.32 152.94 356.32 151.81C356.32 150.68 356.57 149.68 357.07 148.81C357.57 147.94 358.25 147.27 359.12 146.8C359.99 146.33 360.95 146.09 362.02 146.09C363.09 146.09 364.05 146.33 364.92 146.8C365.79 147.27 366.47 147.94 366.97 148.81C367.47 149.68 367.72 150.68 367.72 151.81C367.72 152.94 367.46 153.94 366.95 154.81C366.44 155.68 365.74 156.35 364.87 156.82C364 157.29 363.02 157.53 361.94 157.53C360.86 157.53 359.91 157.29 359.06 156.82ZM363.37 154.72C363.82 154.47 364.17 154.1 364.44 153.61C364.71 153.12 364.84 152.52 364.84 151.81C364.84 150.76 364.56 149.95 364.01 149.38C363.46 148.81 362.78 148.53 361.98 148.53C361.18 148.53 360.51 148.81 359.97 149.38C359.43 149.95 359.16 150.76 359.16 151.81C359.16 152.86 359.42 153.67 359.95 154.24C360.48 154.81 361.14 155.09 361.94 155.09C362.45 155.09 362.92 154.97 363.37 154.72Z" fill="black"/>
<path d="M371.56 156.82C370.71 156.35 370.04 155.68 369.55 154.81C369.06 153.94 368.82 152.94 368.82 151.81C368.82 150.68 369.07 149.68 369.57 148.81C370.07 147.94 370.75 147.27 371.62 146.8C372.49 146.33 373.45 146.09 374.52 146.09C375.59 146.09 376.55 146.33 377.42 146.8C378.29 147.27 378.97 147.94 379.47 148.81C379.97 149.68 380.22 150.68 380.22 151.81C380.22 152.94 379.96 153.94 379.45 154.81C378.94 155.68 378.24 156.35 377.37 156.82C376.5 157.29 375.52 157.53 374.44 157.53C373.36 157.53 372.41 157.29 371.56 156.82ZM375.87 154.72C376.32 154.47 376.67 154.1 376.94 153.61C377.21 153.12 377.34 152.52 377.34 151.81C377.34 150.76 377.06 149.95 376.51 149.38C375.96 148.81 375.28 148.53 374.48 148.53C373.68 148.53 373.01 148.81 372.47 149.38C371.93 149.95 371.66 150.76 371.66 151.81C371.66 152.86 371.92 153.67 372.45 154.24C372.98 154.81 373.64 155.09 374.44 155.09C374.95 155.09 375.42 154.97 375.87 154.72Z" fill="black"/>
<path d="M388.541 146.58C389.171 146.91 389.661 147.33 390.021 147.85V146.27H392.841V157.43C392.841 158.46 392.631 159.37 392.221 160.18C391.811 160.99 391.191 161.63 390.361 162.1C389.531 162.57 388.531 162.81 387.361 162.81C385.791 162.81 384.501 162.44 383.491 161.71C382.481 160.98 381.911 159.98 381.781 158.71H384.561C384.711 159.22 385.021 159.62 385.511 159.92C386.001 160.22 386.591 160.37 387.281 160.37C388.091 160.37 388.751 160.13 389.261 159.64C389.771 159.15 390.021 158.42 390.021 157.43V155.71C389.661 156.23 389.161 156.66 388.531 157.01C387.901 157.36 387.171 157.53 386.361 157.53C385.431 157.53 384.571 157.29 383.801 156.81C383.031 156.33 382.421 155.65 381.971 154.78C381.521 153.91 381.301 152.9 381.301 151.77C381.301 150.64 381.521 149.66 381.971 148.79C382.421 147.92 383.021 147.26 383.791 146.79C384.561 146.32 385.411 146.09 386.361 146.09C387.191 146.09 387.911 146.25 388.541 146.58ZM389.621 150.06C389.351 149.57 388.991 149.2 388.541 148.94C388.091 148.68 387.601 148.55 387.081 148.55C386.561 148.55 386.081 148.68 385.641 148.93C385.201 149.18 384.841 149.55 384.571 150.04C384.301 150.53 384.161 151.1 384.161 151.77C384.161 152.44 384.301 153.02 384.571 153.52C384.841 154.02 385.201 154.4 385.651 154.67C386.101 154.94 386.571 155.07 387.081 155.07C387.591 155.07 388.091 154.94 388.541 154.68C388.991 154.42 389.351 154.05 389.621 153.56C389.891 153.07 390.021 152.49 390.021 151.81C390.021 151.13 389.891 150.55 389.621 150.06Z" fill="black"/>
<path d="M398.12 142.55V157.35H395.32V142.55H398.12Z" fill="black"/>
<path d="M410.84 152.65H402.74C402.81 153.45 403.09 154.08 403.58 154.53C404.07 154.98 404.68 155.21 405.4 155.21C406.44 155.21 407.18 154.76 407.62 153.87H410.64C410.32 154.94 409.71 155.81 408.8 156.5C407.89 157.19 406.78 157.53 405.46 157.53C404.39 157.53 403.44 157.29 402.59 156.82C401.74 156.35 401.08 155.68 400.61 154.81C400.14 153.94 399.9 152.94 399.9 151.81C399.9 150.68 400.13 149.66 400.6 148.79C401.07 147.92 401.72 147.26 402.56 146.79C403.4 146.32 404.37 146.09 405.46 146.09C406.55 146.09 407.46 146.32 408.29 146.77C409.12 147.22 409.77 147.87 410.23 148.7C410.69 149.53 410.92 150.49 410.92 151.57C410.92 151.97 410.89 152.33 410.84 152.65ZM408.02 150.77C408.01 150.05 407.75 149.47 407.24 149.04C406.73 148.61 406.11 148.39 405.38 148.39C404.69 148.39 404.1 148.6 403.63 149.02C403.16 149.44 402.87 150.02 402.76 150.77H408.02Z" fill="black"/>
<path d="M426.85 149.81C426.5 150.46 425.94 150.99 425.19 151.39C424.44 151.79 423.49 151.99 422.34 151.99H420V157.35H417.2V143.39H422.34C423.42 143.39 424.34 143.58 425.1 143.95C425.86 144.32 426.43 144.84 426.81 145.49C427.19 146.14 427.38 146.88 427.38 147.71C427.38 148.46 427.2 149.16 426.85 149.81ZM423.94 149.2C424.31 148.85 424.5 148.35 424.5 147.71C424.5 146.35 423.74 145.67 422.22 145.67H420V149.73H422.22C422.99 149.73 423.57 149.55 423.94 149.2Z" fill="black"/>
<path d="M431.901 142.55V157.35H429.101V142.55H431.901Z" fill="black"/>
<path d="M434.351 148.79C434.801 147.92 435.401 147.26 436.171 146.79C436.941 146.32 437.791 146.09 438.741 146.09C439.571 146.09 440.291 146.26 440.911 146.59C441.531 146.92 442.031 147.34 442.401 147.85V146.27H445.221V157.35H442.401V155.73C442.041 156.25 441.541 156.68 440.911 157.02C440.281 157.36 439.551 157.53 438.721 157.53C437.791 157.53 436.941 157.29 436.171 156.81C435.401 156.33 434.801 155.65 434.351 154.78C433.901 153.91 433.681 152.9 433.681 151.77C433.681 150.64 433.901 149.66 434.351 148.79ZM442.001 150.06C441.731 149.57 441.371 149.2 440.921 148.94C440.471 148.68 439.981 148.55 439.461 148.55C438.941 148.55 438.461 148.68 438.021 148.93C437.581 149.18 437.221 149.55 436.951 150.04C436.681 150.53 436.541 151.1 436.541 151.77C436.541 152.44 436.681 153.02 436.951 153.52C437.221 154.02 437.581 154.4 438.031 154.67C438.481 154.94 438.951 155.07 439.461 155.07C439.971 155.07 440.471 154.94 440.921 154.68C441.371 154.42 441.731 154.05 442.001 153.56C442.271 153.07 442.401 152.49 442.401 151.81C442.401 151.13 442.271 150.55 442.001 150.06Z" fill="black"/>
<path d="M458.3 146.27L451.44 162.59H448.46L450.86 157.07L446.42 146.27H449.56L452.42 154.01L455.32 146.27H458.3Z" fill="black"/>
<path d="M289.36 122.51C295.93 129.19 302.44 135.81 309.18 142.66C307.57 144.19 306 145.63 304.49 147.13C299.92 151.65 295.39 156.21 290.82 160.73C290.48 161.07 289.79 161.56 289.59 161.44C289.09 161.13 288.7 160.56 288.42 160.01C288.25 159.69 288.33 159.22 288.33 158.82C288.33 147.58 288.33 136.33 288.33 125.09C288.33 124.15 288.33 123.22 289.37 122.51H289.36Z" fill="black"/>
<path d="M315.61 135.78C313.62 137.79 311.74 139.69 309.76 141.69C303.44 135.25 297.09 128.79 290.75 122.33C290.83 122.22 290.9 122.1 290.98 121.99C299.2 126.59 307.41 131.18 315.62 135.77L315.61 135.78Z" fill="black"/>
<path d="M310.46 142.65C312.6 140.56 314.46 138.7 316.37 136.92C316.59 136.71 317.22 136.71 317.53 136.88C319.66 138.03 321.78 139.21 323.86 140.44C325.43 141.37 325.43 142.82 323.84 143.75C321.51 145.11 319.13 146.4 316.75 147.68C316.47 147.83 315.9 147.85 315.71 147.68C313.99 146.1 312.33 144.46 310.47 142.67L310.46 142.65Z" fill="black"/>
<path d="M315.05 148.63C307.66 152.69 300.4 156.67 293.15 160.65C293.03 160.51 292.9 160.37 292.78 160.23C294.5 158.63 296.27 157.08 297.93 155.42C301.62 151.75 305.29 148.05 308.9 144.3C309.72 143.45 310.17 143.52 310.9 144.35C312.18 145.79 313.58 147.13 315.04 148.63H315.05Z" fill="black"/>
</svg>
