<?xml version="1.0" encoding="UTF-8"?>
<svg id="Capa_1" data-name="Capa 1" xmlns="http://www.w3.org/2000/svg" viewBox="0 0 517.03 411">
  <defs>
    <style>
      .cls-1 {
        fill: #f0eee6;
      }

      .cls-2 {
        fill: #ff540a;
      }

      .cls-3 {
        fill: #fff;
      }
    </style>
  </defs>
  <path class="cls-3" d="m517.03,411V69.51c0-38.39-31.12-69.51-69.51-69.51h-33.9c0,20.05-16.25,36.31-36.31,36.31h-238.06c-20.05,0-36.31-16.26-36.31-36.31h-33.44C31.12,0,0,31.12,0,69.51v341.49h517.03Z"/>
  <rect class="cls-1" x="34.25" y="117.03" width="93.97" height="93.97" rx="20.95" ry="20.95"/>
  <rect class="cls-1" x="151.25" y="117.03" width="93.97" height="93.97" rx="20.95" ry="20.95"/>
  <rect class="cls-1" x="267.25" y="117.03" width="93.97" height="93.97" rx="20.95" ry="20.95"/>
  <rect class="cls-1" x="384.25" y="117.03" width="93.97" height="93.97" rx="20.95" ry="20.95"/>
  <rect class="cls-1" x="34.25" y="229.03" width="93.97" height="93.97" rx="20.95" ry="20.95"/>
  <rect class="cls-1" x="151.25" y="229.03" width="93.97" height="93.97" rx="20.95" ry="20.95"/>
  <rect class="cls-1" x="267.25" y="229.03" width="93.97" height="93.97" rx="20.95" ry="20.95"/>
  <g>
    <rect class="cls-2" x="384.25" y="229.03" width="94.3" height="94.3" rx="21.02" ry="21.02"/>
    <path class="cls-3" d="m397.66,265.11c.22,3.47,1.71,6.6,4.03,8.91,2.41,2.41,5.71,3.94,9.37,4.05v4.79c0,13.77,11.16,24.94,24.94,24.94,6.89,0,13.12-2.79,17.63-7.3,3.35-3.35,5.75-7.64,6.76-12.45.34-1.6.52-3.26.54-4.96h-16.85v1.11c0,1.39-.35,2.7-.97,3.85-1.37,2.53-4.05,4.24-7.11,4.24-4.46,0-8.09-3.63-8.09-8.09v-6.13s16.18,0,16.18,0h4.96s6.93,0,6.93,0h4.96s0-4.96,0-4.96v-3.04c0-5.5-1.78-10.59-4.8-14.72-1.37-1.87-2.99-3.54-4.81-4.96-4.23-3.3-9.54-5.26-15.32-5.26-5.78,0-11.09,1.96-15.32,5.26-1.83,1.42-3.45,3.09-4.81,4.96-1.08,1.48-2.01,3.09-2.75,4.79h-9.52s-5.34,0-5.34,0c-.4,1.29-.61,2.66-.61,4.09,0,.29,0,.58.03.87Zm38.33,32.14c3.6,0,6.87-1.46,9.23-3.82,1.48-1.48,2.61-3.33,3.25-5.38h6.83c-.89,3.35-2.66,6.42-5.17,8.94-3.77,3.77-8.79,5.85-14.13,5.85-5.34,0-10.35-2.08-14.13-5.85-3.77-3.77-5.85-8.79-5.85-14.13v-4.79s6.93,0,6.93,0v6.13c0,7.21,5.84,13.05,13.05,13.05Zm-24.44-32.14h5.08c.44-1.74,1.12-3.4,2.01-4.96.87-1.52,1.95-2.93,3.22-4.2.2-.2.41-.4.62-.59,2.83-2.6,6.29-4.31,10.02-4.96,1.14-.2,2.3-.3,3.48-.3,1.18,0,2.34.1,3.48.3,3.74.65,7.19,2.36,10.03,4.96.21.19.42.39.62.59,3.77,3.77,5.85,8.79,5.85,14.13v3.04s-6.93,0-6.93,0h-21.14s-4.96,0-4.96,0h-6.93s-4.54,0-4.54,0c-.14,0-.28,0-.42,0-4.41-.21-8-3.64-8.42-8h8.92Z"/>
  </g>
  <path class="cls-1" d="m128.22,411v-49.02c0-11.57-9.38-20.95-20.95-20.95h-52.08c-11.57,0-20.95,9.38-20.95,20.95v49.02h93.97Z"/>
  <path class="cls-1" d="m245.22,411v-49.02c0-11.57-9.38-20.95-20.95-20.95h-52.08c-11.57,0-20.95,9.38-20.95,20.95v49.02h93.97Z"/>
  <path class="cls-1" d="m361.22,411v-49.02c0-11.57-9.38-20.95-20.95-20.95h-52.08c-11.57,0-20.95,9.38-20.95,20.95v49.02h93.97Z"/>
  <path class="cls-1" d="m478.22,411v-49.02c0-11.57-9.38-20.95-20.95-20.95h-52.08c-11.57,0-20.95,9.38-20.95,20.95v49.02h93.97Z"/>
</svg>