<svg width="272" height="203" viewBox="0 0 272 203" fill="none" xmlns="http://www.w3.org/2000/svg">
<path d="M119.6 29.1499H10.6601C5.24218 29.1499 0.850098 33.542 0.850098 38.96V164.36C0.850098 169.778 5.24218 174.17 10.6601 174.17H119.6C125.018 174.17 129.41 169.778 129.41 164.36V38.96C129.41 33.542 125.018 29.1499 119.6 29.1499Z" fill="#DDE5EC"/>
<path d="M101.12 183.82C106.345 183.82 110.58 179.499 110.58 174.17C110.58 168.84 106.345 164.52 101.12 164.52C95.8955 164.52 91.6602 168.84 91.6602 174.17C91.6602 179.499 95.8955 183.82 101.12 183.82Z" fill="#414042"/>
<path d="M29.1402 183.82C34.3648 183.82 38.6002 179.499 38.6002 174.17C38.6002 168.84 34.3648 164.52 29.1402 164.52C23.9156 164.52 19.6802 168.84 19.6802 174.17C19.6802 179.499 23.9156 183.82 29.1402 183.82Z" fill="#414042"/>
<path d="M45.25 2.51001H35.75V52.3201H45.25V2.51001Z" fill="#DDE5EC"/>
<path d="M94.51 2.51001H85.01V52.3201H94.51V2.51001Z" fill="#DDE5EC"/>
<path d="M37.08 0.0100098H93.19C93.92 0.0100098 94.51 0.600078 94.51 1.33008V7.38989H35.76V1.33008C35.76 0.600078 36.35 0.0100098 37.08 0.0100098Z" fill="#414042"/>
<path d="M45.11 52.3201H36.46C35.3775 52.3201 34.5 53.1976 34.5 54.28V143.72C34.5 144.802 35.3775 145.68 36.46 145.68H45.11C46.1925 145.68 47.07 144.802 47.07 143.72V54.28C47.07 53.1976 46.1925 52.3201 45.11 52.3201Z" fill="#AFBED0"/>
<path d="M69.4601 52.3201H60.8101C59.7276 52.3201 58.8501 53.1976 58.8501 54.28V143.72C58.8501 144.802 59.7276 145.68 60.8101 145.68H69.4601C70.5426 145.68 71.4201 144.802 71.4201 143.72V54.28C71.4201 53.1976 70.5426 52.3201 69.4601 52.3201Z" fill="#AFBED0"/>
<path d="M93.8102 52.3201H85.1602C84.0777 52.3201 83.2002 53.1976 83.2002 54.28V143.72C83.2002 144.802 84.0777 145.68 85.1602 145.68H93.8102C94.8927 145.68 95.7702 144.802 95.7702 143.72V54.28C95.7702 53.1976 94.8927 52.3201 93.8102 52.3201Z" fill="#AFBED0"/>
<path d="M148.23 104.75L150.14 104.04L150.21 104.09C151.05 103.83 151.92 103.67 152.83 103.67H197.67C198.82 103.67 199.92 103.9 200.95 104.31C204.47 105.21 207.48 108.27 208.63 112.63L227.58 184.99C228.5 188.51 228.01 192.13 226.5 195.04C224.95 199.45 221.28 202.55 217 202.55H172.16C169.59 202.55 167.24 201.42 165.43 199.57C163.11 198.11 161.25 195.61 160.41 192.39L141.46 120.03C139.77 113.58 142.81 106.74 148.24 104.73L148.23 104.75Z" fill="#B7380B"/>
<path d="M200.25 103.12L197.95 102.4L197.86 102.45C196.85 102.18 195.79 102.03 194.7 102.03H140.6C139.21 102.03 137.89 102.27 136.64 102.68C132.4 103.6 128.76 106.7 127.38 111.14L104.52 184.7C103.41 188.27 104 191.96 105.82 194.91C107.69 199.39 112.12 202.55 117.29 202.55H171.39C174.5 202.55 177.33 201.4 179.51 199.52C182.31 198.04 184.55 195.49 185.56 192.22L208.42 118.66C210.46 112.1 206.79 105.14 200.24 103.11L200.25 103.12Z" fill="#FD540B"/>
<path d="M267.95 145.75L263.51 145.43V143.81H249.2L249.15 142.99L239.52 143.69L231.36 143.1L231.3 143.81H216.66V145.35L212.54 145.65L216.66 202.48H262.37L263.84 202.59L267.95 145.75Z" fill="#AFBED0"/>
<path d="M211.11 150.6C212.67 155.92 214.84 161.13 217.93 165.75C221.02 170.37 225.24 174.8 230.36 177.3C235.48 179.8 241.26 179.89 246.56 177.86C251.86 175.83 256.34 172.11 259.82 167.55C263.81 162.33 266.46 156.27 269.05 150.28C269.41 149.43 269.3 148.45 268.44 147.95C267.72 147.53 266.47 147.71 266.11 148.56C261.95 158.15 257.35 168.77 247.5 173.74C243.12 175.95 238.13 176.65 233.5 174.95C228.87 173.25 224.74 169.34 221.81 165.33C218.38 160.62 216.05 155.25 214.42 149.68C213.81 147.57 210.51 148.47 211.13 150.59L211.11 150.6Z" fill="white"/>
<path d="M267.88 140.75H212.29C210.352 140.75 208.78 142.321 208.78 144.26V146.44C208.78 148.378 210.352 149.95 212.29 149.95H267.88C269.819 149.95 271.39 148.378 271.39 146.44V144.26C271.39 142.321 269.819 140.75 267.88 140.75Z" fill="url(#paint0_linear_64_3)"/>
<path d="M249.28 139.43H259.36C260.2 139.43 260.89 140.11 260.89 140.96V159.14H247.76V140.96C247.76 140.12 248.44 139.43 249.29 139.43H249.28Z" fill="#FD540B"/>
<path d="M249.71 156.07C250.8 156.07 251.68 156.95 251.68 158.04V161.55C251.68 162.64 250.8 163.52 249.71 163.52C248.62 163.52 247.74 162.64 247.74 161.55V158.04C247.74 156.95 248.62 156.07 249.71 156.07Z" fill="#FD540B"/>
<path d="M251.91 157.39C253 157.39 253.88 158.27 253.88 159.36V163.74C253.88 164.83 253 165.71 251.91 165.71C250.82 165.71 249.94 164.83 249.94 163.74V159.36C249.94 158.27 250.82 157.39 251.91 157.39Z" fill="#FD540B"/>
<path d="M254.53 158.69C255.62 158.69 256.5 159.57 256.5 160.66V165.04C256.5 166.13 255.62 167.01 254.53 167.01C253.44 167.01 252.56 166.13 252.56 165.04V160.66C252.56 159.57 253.44 158.69 254.53 158.69Z" fill="#FD540B"/>
<path d="M257.6 157.39C258.69 157.39 259.57 158.27 259.57 159.36V163.74C259.57 164.83 258.69 165.71 257.6 165.71C256.51 165.71 255.63 164.83 255.63 163.74V159.36C255.63 158.27 256.51 157.39 257.6 157.39Z" fill="#FD540B"/>
<path d="M259.79 153C260.88 153 261.76 153.88 261.76 154.97V158.91C261.76 160 260.88 160.88 259.79 160.88C258.7 160.88 257.82 160 257.82 158.91V154.97C257.82 153.88 258.7 153 259.79 153Z" fill="#FD540B"/>
<path d="M250.15 157.16V163.51" stroke="#B7380B" stroke-width="0.5" stroke-miterlimit="10"/>
<path d="M252.78 158.04V165.27" stroke="#B7380B" stroke-width="0.5" stroke-miterlimit="10"/>
<path d="M256.28 158.04V165.27" stroke="#B7380B" stroke-width="0.5" stroke-miterlimit="10"/>
<path d="M259.35 153.66V160.88" stroke="#B7380B" stroke-width="0.5" stroke-miterlimit="10"/>
<defs>
<linearGradient id="paint0_linear_64_3" x1="271.38" y1="145.34" x2="208.78" y2="145.34" gradientUnits="userSpaceOnUse">
<stop stop-color="#58595B"/>
<stop offset="0.03" stop-color="#626365"/>
<stop offset="0.2" stop-color="#919293"/>
<stop offset="0.37" stop-color="#B9B9BA"/>
<stop offset="0.54" stop-color="#D7D7D8"/>
<stop offset="0.7" stop-color="#EDEDED"/>
<stop offset="0.86" stop-color="#FAFAFA"/>
<stop offset="1" stop-color="white"/>
</linearGradient>
</defs>
</svg>
