<svg width="89" height="36" viewBox="0 0 89 36" fill="none" xmlns="http://www.w3.org/2000/svg">
<g id="Group">
<path id="Vector" d="M86.6777 1.81382L1.72949 4.78027L2.75309 34.0924L87.7013 31.126L86.6777 1.81382Z" fill="#FD540B"/>
<g id="Group_2">
<path id="Vector_2" d="M58.8198 12.83L58.7198 10.02L53.5498 10.2L54.1398 27.0699L59.3098 26.89L59.0398 19.0599C58.9398 16.1599 60.3298 15.2599 62.7798 15.1799L64.1998 15.1299L64.0098 9.65991C61.7398 9.73991 59.9398 11.01 58.8198 12.84V12.83Z" fill="#080808"/>
<path id="Vector_3" d="M77.14 9.36993L77.22 11.7599C76.26 10.3099 74.44 9.21994 71.93 9.30994C67.79 9.44994 64.61 12.8999 64.79 18.2199C64.97 23.5399 68.39 26.8099 72.5 26.6699C75.01 26.5799 76.75 25.3699 77.64 23.8599L77.72 26.2499L82.89 26.0699L82.3 9.19995L77.13 9.37994L77.14 9.36993ZM73.89 22.1099C71.96 22.1799 70.15 20.7299 70.05 18.0399C69.96 15.3499 71.66 13.84 73.59 13.77C75.56 13.7 77.33 15.1199 77.42 17.8099C77.51 20.4999 75.84 22.0399 73.88 22.1099H73.89Z" fill="#080808"/>
<path id="Vector_4" d="M48.8399 21.4399L48.5999 14.6699L51.9899 14.5499L51.8399 10.2599L48.4499 10.3799L48.3699 8.15991L43.1999 8.33997L43.2799 10.5599L41.5299 10.6199H41.2299L35.9399 10.8199L33.3799 15.5699L29.9799 11.03L24.1699 11.2299L30.1699 19.28L24.9099 28.09L30.4999 27.89L33.0599 23.1099L36.4599 27.6799L42.2699 27.4799L36.1699 19.3099L41.2399 11.08L41.3699 14.9199L43.4299 14.8499L43.6599 21.5599C43.8099 25.9399 46.3099 27.3399 49.8199 27.2199L52.4499 27.1299L52.2999 22.7499L50.4599 22.8099C49.3099 22.8499 48.8699 22.4399 48.8399 21.4399Z" fill="#080808"/>
<path id="Vector_5" d="M20.1898 22.6498C19.7998 23.5698 19.0097 24.3297 17.5597 24.3797C15.8997 24.4397 14.4997 23.4597 14.2397 21.2597L25.9398 20.8497C25.9798 20.3297 25.9997 19.8198 25.9797 19.3398C25.7997 14.1998 22.2097 11.0597 17.2797 11.2297C12.7897 11.3897 9.60975 14.1597 9.11975 18.5697L6.73975 18.6498C6.73975 18.6498 7.16975 21.3897 9.16975 21.4397C9.83975 26.0397 13.3197 28.7498 17.8897 28.5898C22.0897 28.4398 24.9997 25.7997 25.6997 22.4697L20.1997 22.6597L20.1898 22.6498ZM17.3597 15.3597C19.0797 15.2997 20.5697 16.3098 20.6397 18.1498L14.1697 18.3797C14.4097 16.4997 15.6697 15.4197 17.3597 15.3597Z" fill="#080808"/>
<path id="Vector_6" d="M87.5198 0.899902L85.8798 0.9599L2.45982 3.86987L0.819824 3.92987L0.879822 5.56989L1.84982 33.3799L1.90983 35.0199L88.5998 31.9899L87.5098 0.909851L87.5198 0.899902ZM2.52982 5.50989L85.9498 2.59985L86.9198 30.4099L3.49982 33.3199L2.52982 5.50989Z" fill="#080808"/>
</g>
</g>
</svg>
