<?xml version="1.0" encoding="UTF-8"?>
<svg id="Capa_1" data-name="Capa 1" xmlns="http://www.w3.org/2000/svg" viewBox="0 0 21.56 21.56">
  <defs>
    <style>
      .cls-1 {
        fill: #75a843;
      }

      .cls-1, .cls-2, .cls-3, .cls-4, .cls-5, .cls-6, .cls-7 {
        stroke-width: 0px;
      }

      .cls-2 {
        fill: #6d533e;
      }

      .cls-3 {
        fill: #726256;
      }

      .cls-4 {
        fill: #847266;
      }

      .cls-5 {
        fill: #83bf4f;
      }

      .cls-6 {
        fill: #947151;
      }

      .cls-7 {
        fill: #68584d;
      }
    </style>
  </defs>
  <polygon class="cls-6" points="15.14 21.56 11.54 21.56 9.53 10.48 11.81 10.48 15.14 21.56"/>
  <polygon class="cls-2" points="11.32 20.36 11.48 21.22 13.67 20.79 11.32 20.36"/>
  <polygon class="cls-2" points="10.89 17.99 11.05 18.84 13.23 18.41 10.89 17.99"/>
  <polygon class="cls-2" points="10.46 15.63 10.61 16.43 12.65 16.03 10.46 15.63"/>
  <polygon class="cls-2" points="10.03 13.26 10.18 14.04 12.15 13.65 10.03 13.26"/>
  <polygon class="cls-2" points="9.61 10.91 9.74 11.63 11.58 11.27 9.61 10.91"/>
  <polygon class="cls-2" points="14.67 20.01 14.43 19.2 12.43 19.6 14.67 20.01"/>
  <polygon class="cls-2" points="13.95 17.6 13.72 16.85 11.86 17.22 13.95 17.6"/>
  <polygon class="cls-2" points="13.23 15.2 13.01 14.48 11.21 14.84 13.23 15.2"/>
  <polygon class="cls-2" points="12.51 12.84 12.29 12.09 10.43 12.46 12.51 12.84"/>
  <path class="cls-5" d="m10.77,8.84c4.02-1,9.66-.03,6.85,4.39l-.18-1.09-1,.87.28-1.34-.96.82.18-1.27-1.07.8.24-1.4-1.22.8.19-1.24-1.18.74.15-1.06-1.03.49.02-.85-.7.27-.54-.93Z"/>
  <path class="cls-1" d="m10.72,9.8c-.52-4.82,1.69-11.96,6.66-9.17l-1.38.4.89,1.11-1.6-.13.84,1.06-1.54-.03.79,1.2-1.69-.08.77,1.39-1.5-.04.71,1.35-1.29-.02.42,1.2-1.04.11.21.83-1.25.82Z"/>
  <path class="cls-1" d="m10.98,8.93C10.17,4.08,5.98-2.05,1.76,2.42l1.49-.1-.59,1.39,1.57-.7-.54,1.33,1.54-.57-.46,1.45,1.68-.67-.39,1.62,1.49-.57-.34,1.56,1.29-.47-.09,1.31,1.08-.26.02.88,1.48.35Z"/>
  <path class="cls-5" d="m11.2,9.72C8.25,5.58,1.7,1.6,0,7.38l1.28-.69.12,1.51,1.08-1.27.13,1.44,1.11-1.14.25,1.51,1.18-1.28.4,1.64,1.06-1.11.42,1.56.93-.95.52,1.24.84-.67.42.8,1.47-.27Z"/>
  <path class="cls-5" d="m11.41,9.06c-4.37-.86-10.64.46-7.81,5.02l.27-1.16,1.05.87-.22-1.41,1.01.82-.12-1.35,1.13.79-.18-1.48,1.3.79-.13-1.3,1.26.73-.1-1.12,1.11.47.03-.9.76.25.65-1.02Z"/>
  <path class="cls-5" d="m10.36,9.02c2.96-3.82,9.5-7.49,11.2-2.16l-1.28-.63-.12,1.39-1.08-1.17-.13,1.33-1.11-1.05-.25,1.4-1.18-1.18-.4,1.52-1.06-1.03-.42,1.44-.93-.87-.52,1.15-.84-.62-.42.73-1.47-.24Z"/>
  <path class="cls-7" d="m12.5,10.26c.41.48.4,1.15-.02,1.5-.42.35-1.09.24-1.5-.24-.41-.48-.4-1.15.02-1.5.42-.35,1.09-.24,1.5.24Z"/>
  <path class="cls-3" d="m12.67,8.2c.6.31.88.98.61,1.49-.27.52-.98.68-1.58.37-.6-.31-.87-.98-.61-1.49.27-.52.98-.68,1.58-.37Z"/>
  <path class="cls-4" d="m11.2,10.74c-.45.77-1.35,1.09-2.03.71-.67-.38-.86-1.31-.41-2.08.45-.77,1.35-1.09,2.03-.71.67.38.86,1.31.41,2.08Z"/>
</svg>