<svg width="294" height="186" viewBox="0 0 294 186" fill="none" xmlns="http://www.w3.org/2000/svg">
<path d="M138.68 13.3899C138.68 7.22989 143.28 2.0801 149.42 0.850098C148.5 0.660098 147.55 0.560059 146.57 0.560059H58.14C50.63 0.560059 44.55 6.30989 44.55 13.3899V32.9199H138.69V13.3899H138.68Z" fill="url(#paint0_linear_2_574)"/>
<path d="M35.52 179.3C48.9019 179.3 59.75 168.242 59.75 154.6C59.75 140.959 48.9019 129.9 35.52 129.9C22.1382 129.9 11.29 140.959 11.29 154.6C11.29 168.242 22.1382 179.3 35.52 179.3Z" fill="#414042"/>
<path d="M266.5 0.550049H141.22C138.315 0.550049 135.96 2.90504 135.96 5.81006V99.3999C135.96 102.305 138.315 104.66 141.22 104.66H266.5C269.405 104.66 271.76 102.305 271.76 99.3999V5.81006C271.76 2.90504 269.405 0.550049 266.5 0.550049Z" fill="url(#paint1_radial_2_574)"/>
<path d="M266.5 104.66H141.22C138.315 104.66 135.96 107.015 135.96 109.92V152.41C135.96 155.315 138.315 157.67 141.22 157.67H266.5C269.405 157.67 271.76 155.315 271.76 152.41V109.92C271.76 107.015 269.405 104.66 266.5 104.66Z" fill="url(#paint2_radial_2_574)"/>
<path d="M89.52 32.46H31.24V32.48C25.72 32.34 20.52 35.79 18.68 41.3L0.770012 94.8201C0.150012 96.6601 -0.010066 98.5501 0.189934 100.37C0.149934 100.69 0.119988 101.02 0.119988 101.35V152.48C0.119988 156.87 3.68005 160.42 8.06005 160.42H89.51V96.8201C89.51 95.5201 89.72 94.2701 90.1 93.0901L99.0601 42.3601C100.13 36.7201 105.08 32.46 111.03 32.46H89.52Z" fill="#DDE5EC"/>
<path d="M201.94 138.2H253.52V179.88C253.52 181.43 252.26 182.69 250.71 182.69H204.75C203.2 182.69 201.94 181.43 201.94 179.88V138.2Z" fill="#DCBA9A"/>
<path d="M253.52 128.22H201.94V138.2H253.52V128.22Z" fill="#FD540B"/>
<path d="M241.76 138.2H253.51V179.88C253.51 181.43 252.25 182.69 250.7 182.69H241.76V138.2Z" fill="#C0956F"/>
<path d="M253.52 147.12H293.35V178.67C293.35 180.22 292.09 181.48 290.54 181.48H256.33C254.78 181.48 253.52 180.22 253.52 178.67V147.12Z" fill="#DCBA9A"/>
<path d="M293.35 139.42H253.52V147.12H293.35V139.42Z" fill="#FD540B"/>
<path d="M284.27 147.12H293.34V179.05C293.34 180.39 292.25 181.48 290.91 181.48H284.26V147.12H284.27Z" fill="#C0956F"/>
<path d="M218.14 97.71H253.51V125.41C253.51 126.96 252.25 128.22 250.7 128.22H220.95C219.4 128.22 218.14 126.96 218.14 125.41V97.71Z" fill="#DCBA9A"/>
<path d="M253.51 90.8701H218.14V97.71H253.51V90.8701Z" fill="#FD540B"/>
<path d="M245.46 97.71H253.52V126.07C253.52 127.26 252.55 128.22 251.37 128.22H245.47V97.71H245.46Z" fill="#C0956F"/>
<path d="M9.21997 130.99C13.8647 130.99 17.63 127.225 17.63 122.58C17.63 117.935 13.8647 114.17 9.21997 114.17C4.57526 114.17 0.810059 117.935 0.810059 122.58C0.810059 127.225 4.57526 130.99 9.21997 130.99Z" fill="white"/>
<path d="M63.2499 130.99C67.8946 130.99 71.6599 127.225 71.6599 122.58C71.6599 117.935 67.8946 114.17 63.2499 114.17C58.6052 114.17 54.8398 117.935 54.8398 122.58C54.8398 127.225 58.6052 130.99 63.2499 130.99Z" fill="white"/>
<path d="M50.1099 133.96H19.3899C19.2463 133.96 19.1299 134.076 19.1299 134.22V135.65C19.1299 135.793 19.2463 135.91 19.3899 135.91H50.1099C50.2535 135.91 50.3699 135.793 50.3699 135.65V134.22C50.3699 134.076 50.2535 133.96 50.1099 133.96Z" fill="#455362"/>
<path d="M50.1099 138.21H19.3899C19.2463 138.21 19.1299 138.326 19.1299 138.47V139.9C19.1299 140.043 19.2463 140.16 19.3899 140.16H50.1099C50.2535 140.16 50.3699 140.043 50.3699 139.9V138.47C50.3699 138.326 50.2535 138.21 50.1099 138.21Z" fill="#455362"/>
<path d="M50.1099 142.46H19.3899C19.2463 142.46 19.1299 142.576 19.1299 142.72V144.15C19.1299 144.293 19.2463 144.41 19.3899 144.41H50.1099C50.2535 144.41 50.3699 144.293 50.3699 144.15V142.72C50.3699 142.576 50.2535 142.46 50.1099 142.46Z" fill="#455362"/>
<path d="M84.35 43.6899L84.38 43.55C84.27 43.55 84.1701 43.52 84.0601 43.52H83.3199C82.6799 43.45 82.0501 43.46 81.4301 43.52H17.92L10.85 63.79L0.75 95.02H73.67C74.59 94.96 75.39 94.3199 75.6 93.3799L85.92 46.1699C86.16 45.0499 85.46 43.9499 84.35 43.6899Z" fill="url(#paint3_linear_2_574)"/>
<path d="M96.4999 148.72H70.8999V160.41H96.4999V148.72Z" fill="#DDE5EC"/>
<path d="M136.45 32.46H110.97C105.02 32.46 100.07 36.7201 99 42.3601L90.04 93.0901C89.66 94.2701 89.45 95.5201 89.45 96.8201V148.23C89.45 154.96 94.91 160.42 101.64 160.42H136.45C143.18 160.42 148.64 154.96 148.64 148.23V44.6499C148.64 37.9199 143.18 32.46 136.45 32.46Z" fill="#AFBED0"/>
<path d="M119.05 185.11C132.432 185.11 143.28 174.051 143.28 160.41C143.28 146.768 132.432 135.71 119.05 135.71C105.668 135.71 94.8198 146.768 94.8198 160.41C94.8198 174.051 105.668 185.11 119.05 185.11Z" fill="#414042"/>
<path d="M134.72 43.27H120.16C119.69 43.27 119.24 43.34 118.8 43.45C116.37 43.8 114.33 45.64 113.89 48.2L110.87 65.51L108.49 79.1101H108.47V89.1399C108.47 92.3599 111.08 94.97 114.3 94.97H134.72C137.94 94.97 140.55 92.3599 140.55 89.1399V49.1101C140.55 45.8901 137.94 43.28 134.72 43.28V43.27Z" fill="url(#paint4_linear_2_574)"/>
<defs>
<linearGradient id="paint0_linear_2_574" x1="72.12" y1="72.3798" x2="106.75" y2="-17.11" gradientUnits="userSpaceOnUse">
<stop stop-color="white"/>
<stop offset="1"/>
</linearGradient>
<radialGradient id="paint1_radial_2_574" cx="0" cy="0" r="1" gradientUnits="userSpaceOnUse" gradientTransform="translate(196.12 231.36) scale(307.37 307.37)">
<stop stop-color="white"/>
<stop offset="1"/>
</radialGradient>
<radialGradient id="paint2_radial_2_574" cx="0" cy="0" r="1" gradientUnits="userSpaceOnUse" gradientTransform="translate(156.64 215.35) scale(202.18 202.18)">
<stop stop-color="white"/>
<stop offset="1"/>
</radialGradient>
<linearGradient id="paint3_linear_2_574" x1="0.74" y1="69.25" x2="85.97" y2="69.25" gradientUnits="userSpaceOnUse">
<stop stop-color="#58595B"/>
<stop offset="0.03" stop-color="#5D5E60"/>
<stop offset="0.37" stop-color="#A2A2A3"/>
<stop offset="0.66" stop-color="#D4D4D5"/>
<stop offset="0.88" stop-color="#F3F3F3"/>
<stop offset="1" stop-color="white"/>
</linearGradient>
<linearGradient id="paint4_linear_2_574" x1="58.1996" y1="50.49" x2="186.91" y2="86.6302" gradientUnits="userSpaceOnUse">
<stop stop-color="#58595B"/>
<stop offset="0.03" stop-color="#626365"/>
<stop offset="0.2" stop-color="#919293"/>
<stop offset="0.37" stop-color="#B9B9BA"/>
<stop offset="0.54" stop-color="#D7D7D8"/>
<stop offset="0.7" stop-color="#EDEDED"/>
<stop offset="0.86" stop-color="#FAFAFA"/>
<stop offset="1" stop-color="white"/>
</linearGradient>
</defs>
</svg>
